<svg width="55" height="54" viewBox="0 0 55 54" fill="none" xmlns="http://www.w3.org/2000/svg">
<g clip-path="url(#clip0_1738_606)">
<path d="M27.5002 14.4507C25.3397 14.4507 23.582 16.2083 23.582 18.3688C23.582 20.5294 25.3397 22.287 27.5002 22.287C29.6607 22.287 31.4184 20.5294 31.4184 18.3688C31.4185 16.2083 29.6608 14.4507 27.5002 14.4507ZM27.5002 20.4981C26.3261 20.4981 25.3711 19.543 25.3711 18.369C25.3711 17.195 26.3261 16.2399 27.5002 16.2399C28.6742 16.2399 29.6293 17.1949 29.6293 18.369C29.6293 19.543 28.6743 20.4981 27.5002 20.4981Z" fill="#C6754D"/>
<path d="M53.8595 33.5778L39.6084 29.3553V19.092C39.6084 18.8462 39.5072 18.6112 39.3288 18.4423L28.3951 8.09354V5.78304H29.7685C30.2625 5.78304 30.663 5.38247 30.663 4.88845C30.663 4.39443 30.2625 3.99386 29.7685 3.99386H28.3951V2.62066C28.3951 2.12664 27.9946 1.72607 27.5006 1.72607C27.0065 1.72607 26.606 2.12664 26.606 2.62066V3.99386H25.2328C24.7388 3.99386 24.3382 4.39443 24.3382 4.88845C24.3382 5.38247 24.7388 5.78304 25.2328 5.78304H26.606V8.09396L15.6715 18.4422C15.4929 18.6112 15.3918 18.8462 15.3918 19.0919V29.3556L1.14086 33.5778C0.667091 33.7182 0.396774 34.2159 0.537048 34.6896C0.65222 35.0786 1.00839 35.3303 1.3944 35.3303C1.47846 35.3303 1.564 35.3184 1.64879 35.2932L3.27449 34.8117V37.3205C3.27449 37.8145 3.67506 38.2151 4.16907 38.2151C4.66309 38.2151 5.06366 37.8145 5.06366 37.3205V34.2816L15.3917 31.2215V50.485H5.06366V40.3022C5.06366 39.8082 4.66309 39.4076 4.16907 39.4076C3.67506 39.4076 3.27449 39.8082 3.27449 40.3022V51.3796C3.27449 51.8736 3.67506 52.2742 4.16907 52.2742H50.8319C51.3259 52.2742 51.7265 51.8736 51.7265 51.3796V34.8118L53.3509 35.2932C53.4357 35.3184 53.5213 35.3303 53.6054 35.3303C53.9915 35.3303 54.3475 35.0786 54.4628 34.6897C54.6034 34.216 54.3333 33.7182 53.8595 33.5778ZM26.6062 50.484H23.9535V41.0314C23.9535 39.4314 25.095 38.093 26.6062 37.7872V50.484ZM31.0467 50.484H28.3952V37.7876C29.906 38.0938 31.0467 39.4319 31.0467 41.0315V50.484ZM49.9376 50.4852H39.6083V47.1009C39.6083 46.6069 39.2077 46.2064 38.7137 46.2064C38.2197 46.2064 37.8191 46.6069 37.8191 47.1009V50.4842H32.8358V41.0316C32.8358 38.2201 30.5483 35.9326 27.7368 35.9326H27.2633C24.4517 35.9326 22.1643 38.2202 22.1643 41.0316V50.4842H17.181V19.4771L27.5007 9.71069L37.8192 19.4771V44.119C37.8192 44.613 38.2198 45.0136 38.7138 45.0136C39.2078 45.0136 39.6084 44.613 39.6084 44.119V31.2213L49.9377 34.2817V50.4852H49.9376Z" fill="#C6754D"/>
<path d="M10.6031 37.2549H10.3812C8.80274 37.2549 7.51855 38.5391 7.51855 40.1175V44.5748C7.51855 45.0689 7.91913 45.4694 8.41314 45.4694H12.571C13.0651 45.4694 13.4656 45.0689 13.4656 44.5748V40.1175C13.4657 38.5391 12.1814 37.2549 10.6031 37.2549ZM11.6766 43.6802H9.30773V40.1175C9.30773 39.5256 9.7894 39.0441 10.3812 39.0441H10.6031C11.195 39.0441 11.6766 39.5257 11.6766 40.1175V43.6802Z" fill="#C6754D"/>
<path d="M44.6207 37.2549H44.3988C42.8204 37.2549 41.5361 38.5391 41.5361 40.1175V44.5748C41.5361 45.069 41.9367 45.4694 42.4307 45.4694H46.5886C47.0826 45.4694 47.4832 45.0689 47.4832 44.5748V40.1175C47.4833 38.5391 46.1992 37.2549 44.6207 37.2549ZM45.6942 43.6802H43.3254V40.1175C43.3254 39.5256 43.8071 39.0441 44.3989 39.0441H44.6208C45.2127 39.0441 45.6942 39.5257 45.6942 40.1175V43.6802Z" fill="#C6754D"/>
<path d="M27.6118 25.0029H27.39C25.8115 25.0029 24.5273 26.287 24.5273 27.8656V32.3229C24.5273 32.8169 24.9279 33.2175 25.4219 33.2175H29.5798C30.0738 33.2175 30.4744 32.8169 30.4744 32.3229V27.8656C30.4744 26.287 29.1902 25.0029 27.6118 25.0029ZM28.6852 31.4282H26.3164V27.8655C26.3164 27.2736 26.7981 26.792 27.3899 26.792H27.6117C28.2036 26.792 28.6851 27.2737 28.6851 27.8655V31.4282H28.6852Z" fill="#C6754D"/>
</g>
<defs>
<clipPath id="clip0_1738_606">
<rect width="54" height="54" fill="white" transform="translate(0.5)"/>
</clipPath>
</defs>
</svg>
