<svg width="60" height="60" viewBox="0 0 60 60" fill="none" xmlns="http://www.w3.org/2000/svg">
<path fill-rule="evenodd" clip-rule="evenodd" d="M14 30H44V39.4444C44 43.6173 40.6421 47 36.5 47H21.5C17.3579 47 14 43.6173 14 39.4444V30ZM17.75 33.7778V39.4444C17.75 41.5309 19.4289 43.2222 21.5 43.2222H36.5C38.5711 43.2222 40.25 41.5309 40.25 39.4444V33.7778H17.75Z" fill="#C6754D"/>
<path fill-rule="evenodd" clip-rule="evenodd" d="M12 27C12 23.6863 14.5371 21 17.6667 21H40.3333C43.4629 21 46 23.6863 46 27V29C46 32.3137 43.4629 35 40.3333 35H17.6667C14.5371 35 12 32.3137 12 29V27ZM17.6667 25C16.6235 25 15.7778 25.8954 15.7778 27V29C15.7778 30.1046 16.6235 31 17.6667 31H40.3333C41.3765 31 42.2222 30.1046 42.2222 29V27C42.2222 25.8954 41.3765 25 40.3333 25H17.6667Z" fill="#C6754D"/>
<path fill-rule="evenodd" clip-rule="evenodd" d="M19 18.6667C19 15.5371 21.6863 13 25 13C26.5367 13 27.9385 13.5456 29 14.4429C30.0615 13.5456 31.4633 13 33 13C36.3137 13 39 15.5371 39 18.6667C39 21.7963 36.3137 24.3333 33 24.3333H31V47H27V24.3333H25C21.6863 24.3333 19 21.7963 19 18.6667ZM27 20.5556V18.6667C27 17.6235 26.1046 16.7778 25 16.7778C23.8954 16.7778 23 17.6235 23 18.6667C23 19.7099 23.8954 20.5556 25 20.5556H27ZM31 18.6667V20.5556H33C34.1046 20.5556 35 19.7099 35 18.6667C35 17.6235 34.1046 16.7778 33 16.7778C31.8954 16.7778 31 17.6235 31 18.6667Z" fill="#C6754D"/>
</svg>
