<svg width="60" height="60" viewBox="0 0 60 60" fill="none" xmlns="http://www.w3.org/2000/svg">
<path d="M43.77 42.9834C43.7615 42.9661 43.7545 42.9474 43.746 42.9301L37.4525 29.2624L40.1838 24.8942C40.1923 24.8813 40.2008 24.8683 40.2078 24.8553C40.4713 24.4075 40.6106 23.8951 40.6106 23.3729C40.6106 22.8506 40.4713 22.3382 40.2078 21.8904C40.188 21.8558 40.1654 21.8213 40.1428 21.7881L37.2165 17.5295V14.7288C37.2165 14.2703 37.0379 13.8306 36.7199 13.5064C36.4019 13.1821 35.9706 13 35.5209 13C35.0712 13 34.6399 13.1821 34.3219 13.5064C34.0039 13.8306 33.8253 14.2703 33.8253 14.7288V17.4661L33.2064 18.2542C32.9417 18.5917 32.6058 18.8642 32.2238 19.0515C31.8417 19.2388 31.4232 19.336 30.9993 19.336C30.5754 19.336 30.1569 19.2388 29.7748 19.0515C29.3928 18.8642 29.0569 18.5917 28.7922 18.2542L28.1733 17.4661V14.7288C28.1733 14.2703 27.9946 13.8306 27.6767 13.5064C27.3587 13.1821 26.9274 13 26.4777 13C26.028 13 25.5967 13.1821 25.2787 13.5064C24.9607 13.8306 24.7821 14.2703 24.7821 14.7288V17.5295L21.8586 21.7881C21.836 21.8213 21.8134 21.8558 21.7936 21.8904C21.5301 22.3382 21.3909 22.8506 21.3909 23.3729C21.3909 23.8951 21.5301 24.4075 21.7936 24.8553C21.7936 24.8683 21.8091 24.8813 21.8176 24.8942L24.5461 29.2624L18.2526 42.9301C18.2441 42.9474 18.2371 42.9661 18.2286 42.9834C18.0443 43.4216 17.9696 43.8996 18.0112 44.3746C18.0527 44.8495 18.2092 45.3065 18.4666 45.7046C18.724 46.1027 19.0743 46.4294 19.486 46.6555C19.8977 46.8816 20.358 46.9999 20.8257 47H41.1729C41.6407 47.0002 42.1012 46.882 42.5131 46.656C42.925 46.43 43.2755 46.1033 43.533 45.7052C43.7906 45.307 43.9472 44.85 43.9888 44.3749C44.0304 43.8999 43.9557 43.4217 43.7714 42.9834H43.77ZM30.9993 22.7966C31.8195 22.7983 32.6318 22.6336 33.3889 22.3121C34.146 21.9905 34.8328 21.5186 35.4093 20.9237L37.1049 23.3873L34.5911 27.4068H27.4074L24.898 23.3902L26.5936 20.9266C27.1698 21.5204 27.856 21.9915 28.6123 22.3125C29.3687 22.6336 30.18 22.7981 30.9993 22.7966ZM21.7173 43.5424L27.5544 30.8644H34.4442L40.2813 43.5424H21.7173Z" fill="#C6754D"/>
</svg>
