<svg width="60" height="60" viewBox="0 0 60 60" fill="none" xmlns="http://www.w3.org/2000/svg">
<path fill-rule="evenodd" clip-rule="evenodd" d="M30 16.6663C23.5567 16.6663 18.3333 21.8897 18.3333 28.333C18.3333 32.0098 20.5601 35.4463 23.6749 38.1457L29.4106 43.1167C29.7488 43.4098 30.2512 43.4098 30.5894 43.1167L36.3251 38.1457C39.4399 35.4463 41.6667 32.0098 41.6667 28.333C41.6667 21.8897 36.4433 16.6663 30 16.6663ZM15 28.333C15 20.0487 21.7157 13.333 30 13.333C38.2843 13.333 45 20.0487 45 28.333C45 33.377 41.9837 37.6526 38.5082 40.6647L32.7725 45.6356C31.1814 47.0146 28.8186 47.0146 27.2275 45.6356L21.4918 40.6647C18.0163 37.6526 15 33.377 15 28.333Z" fill="#C6754D"/>
<path d="M33.3337 28.3333C33.3337 30.1743 31.8413 31.6667 30.0003 31.6667C28.1594 31.6667 26.667 30.1743 26.667 28.3333C26.667 26.4924 28.1594 25 30.0003 25C31.8413 25 33.3337 26.4924 33.3337 28.3333Z" fill="#C6754D"/>
</svg>
