<svg width="60" height="60" viewBox="0 0 60 60" fill="none" xmlns="http://www.w3.org/2000/svg">
<g clip-path="url(#clip0_1723_4387)">
<path d="M36.6667 13.333C37.0749 13.3331 37.4689 13.4829 37.774 13.7542C38.079 14.0255 38.2739 14.3993 38.3217 14.8047L38.3333 14.9997V16.6663H40C41.2754 16.6663 42.5025 17.1535 43.4304 18.0285C44.3583 18.9034 44.9168 20.0999 44.9917 21.373L45 21.6663V41.6663C45.0001 42.9417 44.5128 44.1689 43.6379 45.0968C42.7629 46.0247 41.5665 46.5832 40.2933 46.658L40 46.6663H20C18.7246 46.6664 17.4975 46.1791 16.5696 45.3042C15.6417 44.4293 15.0832 43.2328 15.0083 41.9597L15 41.6663V21.6663C14.9999 20.391 15.4872 19.1638 16.3621 18.2359C17.2371 17.308 18.4335 16.7495 19.7067 16.6747L20 16.6663H21.6667V14.9997C21.6671 14.5749 21.8298 14.1663 22.1214 13.8574C22.413 13.5485 22.8116 13.3626 23.2357 13.3377C23.6597 13.3128 24.0773 13.4508 24.4031 13.7234C24.7288 13.9961 24.9382 14.3828 24.9883 14.8047L25 14.9997V16.6663H35V14.9997C35 14.5576 35.1756 14.1337 35.4882 13.8212C35.8007 13.5086 36.2246 13.333 36.6667 13.333ZM41.6667 24.9997H18.3333V41.0413C18.3333 42.2163 18.9767 43.1847 19.805 43.318L20 43.333H40C40.855 43.333 41.56 42.4497 41.655 41.308L41.6667 41.0413V24.9997Z" fill="#C6754D"/>
<path d="M30.0004 30C30.4087 30.0001 30.8027 30.1499 31.1077 30.4212C31.4128 30.6925 31.6077 31.0662 31.6554 31.4717L31.6671 31.6667V36.6667C31.6666 37.0915 31.504 37.5001 31.2124 37.8089C30.9207 38.1178 30.5222 38.3037 30.0981 38.3286C29.674 38.3535 29.2565 38.2155 28.9307 37.9429C28.605 37.6702 28.3956 37.2835 28.3454 36.8617L28.3338 36.6667V33.3333C27.909 33.3329 27.5004 33.1702 27.1915 32.8786C26.8826 32.587 26.6967 32.1884 26.6718 31.7643C26.6469 31.3403 26.7849 30.9227 27.0575 30.5969C27.3302 30.2712 27.7169 30.0618 28.1388 30.0117L28.3338 30H30.0004Z" fill="#C6754D"/>
</g>
<defs>
<clipPath id="clip0_1723_4387">
<rect width="40" height="40" fill="white" transform="translate(10 10)"/>
</clipPath>
</defs>
</svg>
