<svg width="84" height="84" viewBox="0 0 84 84" fill="none" xmlns="http://www.w3.org/2000/svg">
<path d="M37.1236 61.4318L37.8189 54.9192L39.6412 54.7116C39.6412 56.6367 40.7776 58.1942 43.0505 59.3842C45.3583 60.5393 47.9633 61.1168 50.8656 61.1168C53.8028 61.1168 56.0057 60.6793 57.4743 59.8043C58.943 58.8942 59.6773 57.7567 59.6773 56.3917C59.6773 54.0816 58.4534 52.0166 56.0057 50.1965C54.9917 49.4615 53.9252 48.814 52.8063 48.254C50.2537 46.9239 48.6452 46.0839 47.9808 45.7339C47.3514 45.3489 46.6346 44.9639 45.8304 44.5789C45.0261 44.1939 44.2743 43.7914 43.575 43.3713C42.9106 42.9163 42.8574 42.1186 42.0881 41.4886C40.3397 40.0886 38.802 38.7862 38.802 37.0712C38.802 35.3211 41.4937 34.2369 42.0881 32.9419C42.7175 31.6469 42.07 30.351 42.9792 29.616C43.9233 28.881 44.047 28.111 45.3059 27.621C47.4388 26.8509 49.8166 26.4659 52.4391 26.4659C55.0966 26.4659 57.6492 27.1309 60.0969 28.461L59.4675 34.5511H57.6842C57.6842 31.261 54.9218 29.616 49.397 29.616C46.8444 29.616 44.9212 30.0185 43.6274 30.8235C42.3686 31.6286 41.7392 32.7311 41.7392 34.1311C41.7392 36.3712 45.3758 39.0662 52.6489 42.2163C57.4394 44.2814 60.499 46.5739 61.8277 49.094C62.4921 50.354 62.8243 51.7366 62.8243 53.2416C62.8243 56.8817 61.3557 59.6993 58.4185 61.6943C55.5162 63.6893 52.002 64.6869 47.8759 64.6869C43.7498 64.6869 40.1657 63.6019 37.1236 61.4318Z" fill="#C6754D"/>
<path d="M27.0235 20.6105L36.0449 20.0854C40.8004 20.0854 43.8251 21.2405 45.1189 23.5505C45.6434 24.4956 45.9056 25.6506 45.9056 27.0156C45.9056 31.0757 44.2272 34.2958 40.8704 36.6759C44.2272 38.124 46.7448 38.7409 47.7938 40.876C48.2834 41.926 48.5281 43.186 48.5281 44.6561C48.5281 48.1911 47.042 51.2012 44.0699 53.6863C41.1326 56.1363 37.6534 57.3614 33.6322 57.3614H19.9951V55.7863H21.7784C22.8274 55.7863 23.4918 55.5938 23.7715 55.2088C24.0513 54.8238 24.1912 54.2463 24.1912 53.4763V24.4956C24.1912 23.6555 24.0338 23.0605 23.7191 22.7105C23.4394 22.3605 22.7925 22.1855 21.7784 22.1855H19.9951V20.6105H27.0235ZM32.6881 22.9205C31.2894 22.9205 29.9957 23.0255 28.8068 23.2355V36.9909H35.2057C37.1289 36.9909 38.7549 36.2909 40.0836 34.8908C41.4473 33.4558 42.1292 31.9157 42.1292 30.2707C42.1292 27.8906 41.1851 26.0706 39.2969 24.8106C37.4087 23.5505 35.2057 22.9205 32.6881 22.9205ZM33.6322 39.1959H28.8068V54.1063C30.9398 54.7363 32.9329 55.0513 34.7861 55.0513C37.5835 55.0513 39.8563 54.3688 41.6047 53.0038C43.353 51.6037 44.2272 49.7312 44.2272 47.3861C44.2272 44.271 43.1083 42.101 40.8704 40.876C38.8773 39.7559 36.4645 39.1959 33.6322 39.1959Z" fill="#C6754D"/>
<path d="M80.0724 51.4722C77.2317 61.7654 70.4185 70.5087 61.1314 75.7785C51.8443 81.0483 40.8442 82.413 30.551 79.5724C20.2577 76.7317 11.5145 69.9185 6.24467 60.6314C0.974858 51.3443 -0.389843 40.3442 2.45078 30.051C5.29141 19.7577 12.1047 11.0145 21.3917 5.74467C30.6788 0.474858 41.6789 -0.889843 51.9722 1.95078C62.2654 4.79141 71.0087 11.6047 76.2785 20.8917C81.5483 30.1788 82.913 41.1789 80.0724 51.4722L80.0724 51.4722Z" stroke="#C6754D"/>
<path d="M81.5489 53.8349C78.7083 64.1282 71.895 72.8715 62.608 78.1413C53.3209 83.4111 42.3208 84.7758 32.0275 81.9351C21.7343 79.0945 12.991 72.2813 7.72123 62.9942C2.45142 53.7071 1.08672 42.707 3.92734 32.4138C6.76797 22.1205 13.5812 13.3773 22.8683 8.10746C32.1553 2.83765 43.1555 1.47295 53.4487 4.31357C63.742 7.1542 72.4852 13.9675 77.755 23.2545C83.0248 32.5416 84.3895 43.5417 81.5489 53.8349L81.5489 53.8349Z" stroke="#C6754D" stroke-linecap="square"/>
<circle cx="6.99783" cy="62.0286" r="1.5" fill="#C6754D" stroke="white" stroke-width="0.544484"/>
<circle cx="77.5926" cy="23.0393" r="1.5" fill="#C6754D" stroke="white" stroke-width="0.544484"/>
</svg>
