<svg width="281" height="284" viewBox="0 0 281 284" fill="none" xmlns="http://www.w3.org/2000/svg">
<path d="M123.989 207.98L126.343 185.931L132.513 185.228C132.513 191.746 136.36 197.019 144.055 201.048C151.868 204.958 160.688 206.913 170.513 206.913C180.457 206.913 187.915 205.432 192.888 202.47C197.86 199.389 200.346 195.538 200.346 190.916C200.346 183.095 196.202 176.104 187.915 169.942C184.482 167.454 180.872 165.262 177.084 163.366C168.442 158.863 162.996 156.019 160.747 154.834C158.616 153.53 156.189 152.227 153.466 150.924C150.744 149.62 148.198 148.257 145.831 146.835C143.581 145.295 143.401 142.594 140.797 140.461C134.878 135.721 129.672 131.312 129.672 125.506C129.672 119.581 138.784 115.91 140.797 111.526C142.928 107.142 140.736 102.755 143.813 100.266C147.01 97.7777 147.429 95.1707 151.691 93.5118C158.912 90.9048 166.962 89.6014 175.841 89.6014C184.838 89.6014 193.479 91.8528 201.766 96.3557L199.635 116.974H193.598C193.598 105.835 184.246 100.266 165.541 100.266C156.899 100.266 150.388 101.629 146.008 104.354C141.746 107.08 139.616 110.812 139.616 115.552C139.616 123.136 151.927 132.26 176.551 142.925C192.769 149.916 203.128 157.678 207.626 166.21C209.875 170.476 211 175.156 211 180.252C211 192.575 206.028 202.114 196.084 208.869C186.258 215.623 174.361 219 160.392 219C146.423 219 134.288 215.327 123.989 207.98Z" fill="#C6754D"/>
<path d="M89.7948 69.7775L120.337 68C136.437 68 146.677 71.9104 151.058 79.7312C152.833 82.9306 153.721 86.841 153.721 91.4624C153.721 105.208 148.039 116.11 136.674 124.168C148.039 129.07 156.562 131.159 160.114 138.387C161.771 141.942 162.6 146.208 162.6 151.185C162.6 163.153 157.569 173.344 147.506 181.757C137.562 190.052 125.783 194.199 112.169 194.199H66V188.867H72.0375C75.5889 188.867 77.8382 188.215 78.7853 186.912C79.7323 185.608 80.2058 183.653 80.2058 181.046V82.9306C80.2058 80.0867 79.6731 78.0722 78.6077 76.8873C77.6606 75.7023 75.4706 75.1098 72.0375 75.1098H66V69.7775H89.7948ZM108.973 77.5983C104.237 77.5983 99.8573 77.9537 95.8323 78.6647V125.234H117.496C124.007 125.234 129.512 122.864 134.01 118.124C138.627 113.266 140.936 108.052 140.936 102.483C140.936 94.4248 137.74 88.263 131.347 83.9971C124.954 79.7312 117.496 77.5983 108.973 77.5983ZM112.169 132.699H95.8323V183.179C103.054 185.312 109.801 186.378 116.076 186.378C125.546 186.378 133.241 184.068 139.16 179.446C145.079 174.706 148.039 168.367 148.039 160.428C148.039 149.881 144.251 142.535 136.674 138.387C129.926 134.595 121.758 132.699 112.169 132.699Z" fill="#C6754D"/>
<path d="M270.063 174.445C260.397 209.471 237.214 239.222 205.612 257.154C174.011 275.086 136.58 279.729 101.555 270.063C66.5292 260.397 36.7781 237.214 18.8463 205.612C0.914448 174.011 -3.72929 136.58 5.93665 101.555C15.6026 66.5292 38.7864 36.7781 70.3879 18.8463C101.989 0.914448 139.42 -3.72929 174.445 5.93665C209.471 15.6026 239.222 38.7864 257.154 70.3879C275.086 101.989 279.729 139.42 270.063 174.445L270.063 174.445Z" stroke="#C6754D" stroke-width="2"/>
<path d="M274.581 182.312C264.951 217.21 241.852 246.852 210.365 264.719C178.879 282.585 141.585 287.212 106.688 277.581C71.79 267.951 42.1475 244.852 24.2812 213.365C6.41476 181.879 1.78797 144.585 11.4186 109.688C21.0493 74.79 44.1485 45.1475 75.6347 27.2812C107.121 9.41476 144.415 4.78797 179.312 14.4186C214.21 24.0493 243.852 47.1485 261.719 78.6347C279.585 110.121 284.212 147.415 274.581 182.312L274.581 182.312Z" stroke="#C6754D" stroke-width="3" stroke-linecap="square"/>
<circle cx="22" cy="210" r="4.5" fill="#C6754D" stroke="white" stroke-width="3"/>
<circle cx="261" cy="78" r="4.5" fill="#C6754D" stroke="white" stroke-width="3"/>
</svg>
